<svg id="visual" viewBox="0 0 900 600" width="900" height="600" xmlns="http://www.w3.org/2000/svg" xmlns:xlink="http://www.w3.org/1999/xlink" version="1.1"><rect x="0" y="0" width="900" height="600" fill="#002233"></rect><defs><linearGradient id="grad1_0" x1="33.3%" y1="0%" x2="100%" y2="100%"><stop offset="20%" stop-color="#002233" stop-opacity="1"></stop><stop offset="80%" stop-color="#002233" stop-opacity="1"></stop></linearGradient></defs><defs><linearGradient id="grad2_0" x1="0%" y1="0%" x2="66.7%" y2="100%"><stop offset="20%" stop-color="#002233" stop-opacity="1"></stop><stop offset="80%" stop-color="#002233" stop-opacity="1"></stop></linearGradient></defs><g transform="translate(900, 0)"><path d="M0 378.6C-70.5 371.1 -140.9 363.7 -189.3 327.9C-237.7 292 -264 227.9 -291.9 168.5C-319.7 109.1 -349.2 54.6 -378.6 0L0 0Z" fill="#0066FF"></path></g><g transform="translate(0, 600)"><path d="M0 -378.6C51.6 -344.1 103.3 -309.6 163 -282.3C222.7 -255.1 290.6 -235.1 327.9 -189.3C365.1 -143.5 371.9 -71.7 378.6 0L0 0Z" fill="#0066FF"></path></g></svg>