<svg id="visual" viewBox="0 0 900 600" width="900" height="600" xmlns="http://www.w3.org/2000/svg" xmlns:xlink="http://www.w3.org/1999/xlink" version="1.1"><rect x="0" y="0" width="900" height="600" fill="#002233"></rect><path d="M132 0L141.5 20C151 40 170 80 180.7 120C191.3 160 193.7 200 184.2 240C174.7 280 153.3 320 150.2 360C147 400 162 440 160.2 480C158.3 520 139.7 560 130.3 580L121 600L0 600L0 580C0 560 0 520 0 480C0 440 0 400 0 360C0 320 0 280 0 240C0 200 0 160 0 120C0 80 0 40 0 20L0 0Z" fill="#0066FF" stroke-linecap="round" stroke-linejoin="miter"></path></svg>